<svg xmlns="http://www.w3.org/2000/svg" viewBox="0 0 600 320" fill="none" stroke-linecap="round" stroke-linejoin="round" >
<path d="M300.0,0.0C299.8,10.5 300.6,45.0 298.7,63.0C296.8,81.1 293.3,94.0 288.5,108.2C283.6,122.5 277.1,135.5 269.6,148.5C262.1,161.4 252.9,173.7 243.7,185.8C234.5,197.9 223.9,209.6 214.3,221.2C204.7,232.7 194.7,243.9 185.9,255.0C177.1,266.0 165.5,282.1 161.4,287.5" stroke="#375B29" stroke-width="2.6" pathLength="1"/>
<path d="M300.0,0.0C303.7,5.1 316.6,21.7 322.4,30.4C328.2,39.1 330.8,45.3 334.8,52.2C338.8,59.0 342.2,65.3 346.6,71.6C350.9,77.8 355.1,83.7 360.8,89.6C366.5,95.4 373.0,101.0 380.9,106.6C388.9,112.1 398.3,117.6 408.6,122.9C418.9,128.2 437.1,136.0 442.8,138.6" stroke="#00690C" stroke-width="2.5" pathLength="1"/>
<path d="M300.0,0.0C298.9,10.5 299.0,44.8 293.6,62.7C288.2,80.7 276.5,93.6 267.5,107.7C258.6,121.9 248.6,134.9 239.7,147.8C230.8,160.7 222.0,172.9 214.1,185.0C206.1,197.1 199.1,208.7 192.1,220.2C185.1,231.7 179.0,242.8 172.0,253.8C165.0,264.8 153.9,280.9 150.2,286.3" stroke="#689F1E" stroke-width="2.4" pathLength="1"/>
<path d="M300.0,0.0C300.7,11.5 301.6,49.4 304.3,69.3C307.0,89.1 310.6,103.3 316.0,118.9C321.4,134.6 328.4,149.0 336.6,163.2C344.8,177.4 354.9,190.9 365.2,204.2C375.4,217.5 387.1,230.4 398.2,243.1C409.2,255.7 420.8,268.0 431.3,280.2C441.8,292.3 456.1,310.0 461.1,316.0" stroke="#375B29" stroke-width="2.2" pathLength="1"/>
<path d="M300.0,0.0C295.6,8.2 281.2,35.2 273.6,49.3C265.9,63.4 260.6,73.5 254.1,84.7C247.7,95.8 241.6,106.1 234.7,116.2C227.8,126.3 221.0,135.9 212.7,145.4C204.3,154.9 195.4,164.0 184.7,173.1C174.0,182.1 161.9,190.8 148.7,199.5C135.4,208.2 112.4,220.7 105.2,225.0" stroke="#00690C" stroke-width="2.1" pathLength="1"/>
<path d="M300.0,0.0C300.4,5.8 298.3,24.9 302.3,34.9C306.4,44.8 316.6,52.0 324.2,59.9C331.8,67.7 340.4,75.0 347.9,82.1C355.4,89.3 362.8,96.1 369.2,102.8C375.6,109.5 381.1,116.0 386.4,122.3C391.6,128.7 395.7,134.9 400.5,141.0C405.4,147.2 412.8,156.1 415.2,159.1" stroke="#689F1E" stroke-width="2.0" pathLength="1"/>
<path d="M300.0,0.0C297.9,6.0 293.1,25.6 287.5,35.9C281.8,46.1 275.1,53.5 266.2,61.6C257.3,69.7 246.5,77.2 234.2,84.5C221.9,91.9 207.4,98.9 192.4,105.8C177.4,112.7 160.6,119.3 144.1,125.9C127.7,132.5 110.3,138.8 93.8,145.1C77.3,151.4 53.4,160.6 45.3,163.7" stroke="#375B29" stroke-width="1.9" pathLength="1"/>
<path d="M300.0,0.0C304.2,7.9 317.8,34.0 325.1,47.6C332.4,61.3 337.7,71.0 343.8,81.8C349.8,92.5 355.4,102.4 361.6,112.2C367.8,122.0 373.6,131.3 380.9,140.4C388.1,149.6 395.8,158.4 405.2,167.1C414.5,175.8 425.1,184.3 437.0,192.6C448.9,201.0 469.8,213.2 476.4,217.3" stroke="#00690C" stroke-width="1.7" pathLength="1"/>
<path d="M300.0,0.0C300.3,9.4 304.3,40.2 301.7,56.4C299.1,72.5 290.4,84.1 284.3,96.8C278.2,109.5 271.0,121.2 265.0,132.8C259.0,144.4 253.0,155.4 248.2,166.2C243.3,177.1 239.4,187.5 236.0,197.8C232.5,208.1 230.3,218.2 227.6,228.1C225.0,237.9 221.3,252.3 220.0,257.2" stroke="#689F1E" stroke-width="1.6" pathLength="1"/>
</svg>
