<svg xmlns="http://www.w3.org/2000/svg" viewBox="0 0 200 1000" fill="none" stroke-linecap="round" stroke-linejoin="round" >
<path d="M93.0,0.0C93.1,9.3 93.5,37.0 93.8,55.6C94.0,74.1 94.2,92.6 94.4,111.1C94.6,129.6 94.8,148.1 95.0,166.7C95.1,185.2 95.3,203.7 95.3,222.2C95.4,240.7 95.5,259.3 95.5,277.8C95.5,296.3 95.5,314.8 95.4,333.3C95.3,351.9 95.2,370.4 95.0,388.9C94.8,407.4 94.6,425.9 94.3,444.4C94.0,463.0 93.6,481.5 93.2,500.0C92.8,518.5 92.3,537.0 91.8,555.6C91.3,574.1 90.7,592.6 90.0,611.1C89.4,629.6 88.7,648.1 87.9,666.7C87.1,685.2 86.3,703.7 85.4,722.2C84.5,740.7 83.5,759.3 82.5,777.8C81.4,796.3 80.4,814.8 79.2,833.3C78.0,851.9 76.8,870.4 75.6,888.9C74.3,907.4 72.9,925.9 71.5,944.4C70.2,963.0 67.9,990.7 67.2,1000.0" stroke="#375B29" stroke-width="3" pathLength="1"/>
<path d="M110.8,0.0C110.8,9.3 111.0,37.0 111.2,55.6C111.3,74.1 111.4,92.6 111.5,111.1C111.6,129.6 111.7,148.1 111.7,166.7C111.8,185.2 111.9,203.7 112.0,222.2C112.1,240.7 112.2,259.3 112.2,277.8C112.3,296.3 112.4,314.8 112.5,333.3C112.6,351.9 112.7,370.4 112.9,388.9C113.0,407.4 113.1,425.9 113.3,444.4C113.4,463.0 113.6,481.5 113.8,500.0C114.0,518.5 114.2,537.0 114.5,555.6C114.7,574.1 115.0,592.6 115.3,611.1C115.6,629.6 116.0,648.1 116.4,666.7C116.8,685.2 117.2,703.7 117.7,722.2C118.2,740.7 118.7,759.3 119.3,777.8C119.9,796.3 120.6,814.8 121.3,833.3C122.0,851.9 122.7,870.4 123.5,888.9C124.4,907.4 125.3,925.9 126.2,944.4C127.2,963.0 128.8,990.7 129.3,1000.0" stroke="#375B29" stroke-width="3" pathLength="1"/>
</svg>
