<svg xmlns="http://www.w3.org/2000/svg" viewBox="0 0 1200 60" fill="none" stroke-linecap="round" stroke-linejoin="round" >
<path d="M0.0,30.0C10.0,33.0 40.0,45.7 60.0,47.8C80.0,49.8 100.0,44.2 120.0,42.3C140.0,40.4 160.0,37.7 180.0,36.3C200.0,35.0 220.0,37.2 240.0,34.0C260.0,30.8 280.0,21.6 300.0,17.3C320.0,12.9 340.0,6.8 360.0,8.1C380.0,9.4 400.0,20.0 420.0,25.0C440.0,29.9 460.0,35.8 480.0,38.0C500.0,40.2 520.0,36.9 540.0,38.1C560.0,39.2 580.0,44.0 600.0,44.8C620.0,45.6 640.0,47.0 660.0,43.0C680.0,39.0 700.0,26.1 720.0,20.7C740.0,15.4 760.0,10.8 780.0,11.0C800.0,11.1 820.0,19.0 840.0,21.4C860.0,23.9 880.0,24.0 900.0,25.7C920.0,27.3 940.0,27.6 960.0,31.5C980.0,35.3 1000.0,46.0 1020.0,48.7C1040.0,51.4 1060.0,51.4 1080.0,47.8C1100.0,44.2 1120.0,31.9 1140.0,27.2C1160.0,22.5 1190.0,21.0 1200.0,19.8" stroke="#7CC01F" stroke-width="2.5" pathLength="1"/>
<path d="M0.0,45.3C6.9,44.2 27.6,41.0 41.4,38.8C55.2,36.5 69.0,33.4 82.8,31.9C96.6,30.5 110.3,32.1 124.1,30.1C137.9,28.0 151.7,22.5 165.5,19.8C179.3,17.2 193.1,12.9 206.9,14.1C220.7,15.4 234.5,23.2 248.3,27.3C262.1,31.5 275.9,37.1 289.7,38.8C303.4,40.5 317.2,37.5 331.0,37.5C344.8,37.5 358.6,38.8 372.4,38.9C386.2,39.1 400.0,41.0 413.8,38.4C427.6,35.8 441.4,27.6 455.2,23.5C469.0,19.5 482.8,14.2 496.6,14.1C510.3,14.0 524.1,20.1 537.9,22.7C551.7,25.4 565.5,28.3 579.3,29.8C593.1,31.3 606.9,29.8 620.7,31.8C634.5,33.8 648.3,39.4 662.1,41.5C675.9,43.7 689.7,46.6 703.4,44.6C717.2,42.7 731.0,34.0 744.8,29.8C758.6,25.6 772.4,20.8 786.2,19.6C800.0,18.3 813.8,21.9 827.6,22.3C841.4,22.6 855.2,21.4 869.0,21.7C882.8,21.9 896.6,21.0 910.3,23.8C924.1,26.7 937.9,35.3 951.7,39.0C965.5,42.7 979.3,46.6 993.1,46.0C1006.9,45.4 1020.7,38.4 1034.5,35.4C1048.3,32.5 1062.1,29.9 1075.9,28.5C1089.7,27.0 1103.4,28.3 1117.2,26.5C1131.0,24.7 1144.8,19.2 1158.6,17.6C1172.4,16.0 1193.1,17.1 1200.0,17.0" stroke="#689F1E" stroke-width="2.0" pathLength="1"/>
<path d="M0.0,34.2C12.5,33.3 50.0,29.7 75.0,28.6C100.0,27.4 125.0,28.6 150.0,27.4C175.0,26.2 200.0,22.6 225.0,21.4C250.0,20.1 275.0,18.1 300.0,19.7C325.0,21.3 350.0,27.6 375.0,30.8C400.0,34.0 425.0,38.0 450.0,38.9C475.0,39.9 500.0,36.9 525.0,36.3C550.0,35.6 575.0,35.4 600.0,35.0C625.0,34.6 650.0,35.8 675.0,34.0C700.0,32.2 725.0,26.8 750.0,24.1C775.0,21.3 800.0,17.4 825.0,17.5C850.0,17.6 875.0,22.4 900.0,24.9C925.0,27.3 950.0,30.9 975.0,32.3C1000.0,33.6 1025.0,32.2 1050.0,33.1C1075.0,34.0 1100.0,36.4 1125.0,37.6C1150.0,38.7 1187.5,39.8 1200.0,40.3" stroke="#375B29" stroke-width="1.5" pathLength="1"/>
</svg>
